<svg xmlns="http://www.w3.org/2000/svg" viewBox="0 0 309.76 125.17"><defs><style>.cls-1{fill:#414042;fill-rule:evenodd;}</style></defs><title>oilChange</title><g id="Layer_2" data-name="Layer 2"><g id="Layer_1-2" data-name="Layer 1"><path id="_Compound_Path_" data-name="&lt;Compound Path&gt;" class="cls-1" d="M67.43,36.85,9.59,21.43V66L67.43,81.46V75.59L12.75,61V28.13l6,1.61,48.67,13V36.85ZM227.93,75v35.78l69-52.23-2.25-3.45L227.93,75Zm-9.54,40.63V74l-55-36H77v77.64ZM77,13h83V9.59H77V13Zm87.79,9.59H130.67v5.83H164.8l2.62.78,56.5,37,74.83-22.33,11,16.94L226,124.22l-2.88,1H67.43V91.36L0,73.38V9l6,1.6L72.8,28.39h31.79V22.56H67.43V0H169.59V22.56Zm-43.73,5.83V22.56h-6.88v5.83ZM67.43,65.69l-45.09-12V40.59l45.09,12Z"/></g></g></svg>