<svg xmlns="http://www.w3.org/2000/svg" viewBox="0 0 366.92 119.83"><defs><style>.cls-1{fill:#231f20;}</style></defs><title>sideView</title><g id="Layer_2" data-name="Layer 2"><g id="Layer_1-2" data-name="Layer 1"><path class="cls-1" d="M70.94,75A18.13,18.13,0,1,0,89.07,93.17,18.15,18.15,0,0,0,70.94,75Zm0,35.66A17.53,17.53,0,1,1,88.47,93.17,17.55,17.55,0,0,1,70.94,110.7Z"/><path class="cls-1" d="M70.94,91.1A2.08,2.08,0,1,0,73,93.17,2.07,2.07,0,0,0,70.94,91.1Zm0,3.84a1.77,1.77,0,1,1,1.77-1.77A1.77,1.77,0,0,1,70.94,94.94Z"/><path class="cls-1" d="M200.33,47.29l-5.92.45a4.46,4.46,0,0,0-8.36.63l-4.62.35a1.85,1.85,0,0,0-1,.34,1.11,1.11,0,0,0-.42,1,1.31,1.31,0,0,0,1.41,1.18h.13l4.66-.26a4.43,4.43,0,0,0,4.1,2.69,4.39,4.39,0,0,0,4.25-3.16l5.83-.33a1.48,1.48,0,0,0,1-.48,1.45,1.45,0,0,0,.35-1A1.43,1.43,0,0,0,200.33,47.29Zm-10-1.88a4.15,4.15,0,0,1,3.75,2.35l-7.71.59A4.09,4.09,0,0,1,190.34,45.41Zm-8.8,5.18h-.09a.73.73,0,0,1-.81-.62.5.5,0,0,1,.2-.45,1.16,1.16,0,0,1,.64-.2l16.07-1.23v1.58Zm8.8,2.73a4.12,4.12,0,0,1-3.78-2.41l7.71-.44A4.08,4.08,0,0,1,190.34,53.32Zm10-3.8-2.53.15V48.08l2.48-.19a.82.82,0,0,1,0,1.63Z"/><path class="cls-1" d="M262.84,45.49H263l4.67-.27a4.45,4.45,0,0,0,8.35-.47l5.82-.33a1.38,1.38,0,0,0,1-.48,1.4,1.4,0,0,0,.35-1,1.42,1.42,0,0,0-1.42-1.33l-5.92.45a4.44,4.44,0,0,0-4.07-2.62,4.39,4.39,0,0,0-4.28,3.26l-4.62.35a1.67,1.67,0,0,0-1,.34,1.07,1.07,0,0,0-.42,1A1.29,1.29,0,0,0,262.84,45.49Zm8.88,2.12a4.12,4.12,0,0,1-3.77-2.4l7.71-.44A4.1,4.1,0,0,1,271.72,47.61Zm0-7.9a4.13,4.13,0,0,1,3.75,2.35l-7.71.58A4.1,4.1,0,0,1,271.72,39.71Zm-9.5,4.12a1.19,1.19,0,0,1,.64-.21l18.85-1.44a.82.82,0,0,1,.62,1.36.84.84,0,0,1-.56.28l-18.85,1.07h-.08c-.36,0-.78-.16-.81-.61A.48.48,0,0,1,262.22,43.83Z"/><path class="cls-1" d="M303.79,48.94H304l10.58-.52a3.36,3.36,0,0,0,2.35-1.11,3.4,3.4,0,0,0,.87-2.44l-.3-6.13a3.39,3.39,0,0,0-3.55-3.22L303.33,36a3.38,3.38,0,0,0-3.21,3.55l.3,6.14A3.37,3.37,0,0,0,303.79,48.94Zm-.43-12.3,10.58-.51h.14a2.77,2.77,0,0,1,2.77,2.65l.31,6.13a2.79,2.79,0,0,1-2.65,2.92l-10.58.52h-.14A2.77,2.77,0,0,1,301,45.7l-.3-6.14A2.79,2.79,0,0,1,303.36,36.64Z"/><path class="cls-1" d="M22.38,61.9a.24.24,0,0,0,.14,0C27.19,58.4,43.92,51,44.09,51a.15.15,0,0,0,.09-.18.16.16,0,0,0-.17-.1L32.57,52.5a.11.11,0,0,0-.07,0,110.21,110.21,0,0,0-10.29,9,.23.23,0,0,0,0,.25A.24.24,0,0,0,22.38,61.9Zm10.28-9.11,10.26-1.64c-3.61,1.61-15.49,7-20,10.06A126,126,0,0,1,32.66,52.79Z"/><path class="cls-1" d="M109,33.8h3.44a.31.31,0,0,0,.3-.3.3.3,0,0,0-.3-.3H109a.3.3,0,0,0-.31.3A.31.31,0,0,0,109,33.8Z"/><path class="cls-1" d="M106.32,36.49h4.37a.31.31,0,0,0,0-.61h-4.37a.31.31,0,0,0,0,.61Z"/><path class="cls-1" d="M91.76,56.6l10.49-.3a.81.81,0,0,0,.78-.83l0-.54a.8.8,0,0,0-.82-.78h0l-10.47.3a.85.85,0,0,0-.56.25.82.82,0,0,0-.22.58l0,.54A.79.79,0,0,0,91.76,56.6Zm-.16-1.48a.19.19,0,0,1,.14-.07l10.47-.3a.2.2,0,0,1,.2.2l0,.54a.22.22,0,0,1-.2.21L91.76,56v0a.2.2,0,0,1-.2-.2l0-.54A.18.18,0,0,1,91.6,55.12Z"/><path class="cls-1" d="M349.51,31.77l-7.08.44.56,1.7a.38.38,0,0,1-.41.5l-7.44-.93a.24.24,0,0,0-.23.2.23.23,0,0,0,.16.27l10.27,3.6h5.38a.34.34,0,0,0,.32-.2A.33.33,0,0,0,351,37l-1.77-2.1h0L352.52,36a.3.3,0,0,0,.37-.16.31.31,0,0,0,0-.32Zm-.14,2.82a.33.33,0,0,0-.43.17.34.34,0,0,0,.05.35l1.77,2.06a.05.05,0,0,1,0,0,.06.06,0,0,1,0,0h-5.3l-9.74-3.4,6.86.86a.69.69,0,0,0,.74-.89l-.44-1.33,6.54-.41,3.25,3.67Z"/><path class="cls-1" d="M366.08,71.89c0-.09-3.2-8.51-4.23-12.3-.58-2.14-2.49-9.42-2.74-13a.25.25,0,0,0-.06-.15h0a9.16,9.16,0,0,0-.66-.8A11.56,11.56,0,0,1,357,41.73h0l-.32-10.16a8.89,8.89,0,0,0-.2-1.59c.11-.08,2.52-1.73,2.52-1.74.38-.25.4-.52.36-.69s-.24-.91-4.86-1.39L353.11,26a86.2,86.2,0,0,0-10.2-.66c-23-7.66-55.25-16.2-55.58-16.28v0l-1.08-.94a2,2,0,0,0-1-.4l-9.32-1-.61-.92A3.4,3.4,0,0,1,274.78,4V2.34a.76.76,0,0,0-.75-.76h-4.71a8.51,8.51,0,0,0-2.2.29L259.18,4l0,0c-4-.58-7.84-1-11.29-1.42C237.64,1.48,226.65.42,215.42.14,205.56-.1,197,0,189.14.35c-8,.39-16.51.91-24.69,2.62-1.4.3-2.78.59-4.12,1C145.4,8.2,128.11,16.58,119.13,21.2l-.87.44L112,24.85,98.47,31.78a94.75,94.75,0,0,1-18.75,7.08C70.61,39.36,63.09,40,56.07,41c-1.58.21-3.17.49-4.74.82-6.11,1.28-11.7,3.71-17.85,6.51-2.1,1-3.68,1.71-5.13,2.44l-.66.3a7.43,7.43,0,0,0-2.35,1.33A59.61,59.61,0,0,0,16,56.93c-.76.47-1.55,1-2.4,1.58-.08.05-.26.2-.48.38s-.75.61-1.11.87a.75.75,0,0,0-.21.26c-3.06,1.55-8.28,7.48-9,9.45A.46.46,0,0,0,3,70a.53.53,0,0,0,.3.12c0,.73,0,2.24,0,2.71h.23a32.88,32.88,0,0,0-1.46,12c0,.13.2,2.8,3.12,6.75l-.82.5a.3.3,0,0,0-.14.32.31.31,0,0,0,.26.23l.64.08v.89H2.71l-.09.1-.52.48C1,95.17-.64,96.67.25,97.79a2.5,2.5,0,0,0,1.5.76c4.08.87,8.21,2.06,12.21,3.22,1.94.56,3.94,1.15,5.92,1.68h0a16.19,16.19,0,0,0,3.77.38c1.73,0,3.5,0,5.21.06s3.48.06,5.24.06,3.5,0,5.24-.12a1.23,1.23,0,0,0,.9-.35,1.67,1.67,0,0,0,.22-1.3c0-.2,0-.4,0-.62,0-1.34,0-2.72-.07-4.06l0-1,4.13-.16A26.65,26.65,0,0,0,96.94,99l4.94.16c-.07,1.69-.18,3.3-.32,4.78a.72.72,0,0,0,.15.49.68.68,0,0,0,.45.23c5.56.49,11.24.65,16.94.65,5.51,0,11-.15,16.45-.3s10.85-.29,16.17-.29H267.54a.3.3,0,0,0,.18-.55A31.6,31.6,0,0,1,268,98.5l4.5-.11,0-.6-4.42.11c.19-1.71.4-3.49.6-5C270.31,81,275,73.33,283.58,68.76a33.05,33.05,0,0,1,27.68-1.53,26.79,26.79,0,0,1,7.33,4.57l0,0,.2.13a33.67,33.67,0,0,1,6.85,8.33,22.12,22.12,0,0,1,2.73,9.08l-2.9,1.75a26.52,26.52,0,1,0,.09,2c0-.46,0-.92,0-1.37L328.42,90a79.84,79.84,0,0,1,.14,8.19c0,.6,0,1.19,0,1.79a.63.63,0,0,0,.3.56.64.64,0,0,0,.63,0c1.76-.86,8-1.45,11.08-1.74.92-.08,1.59-.15,1.85-.19l1.57-.25a33.86,33.86,0,0,0,8.85-2.18l.07.18,12.09-5V91.2c0-2.57,1.2-3.39,1.25-3.42l.14-.09V79.85l.4-.56a.29.29,0,0,0,.05-.13A17.73,17.73,0,0,0,366.08,71.89Zm-67.2,47.33a26.05,26.05,0,1,1,26.05-26A26.08,26.08,0,0,1,298.88,119.22ZM359,55V49.88c.68,3.72,1.87,8.25,2.31,9.87,1,3.81,4.22,12.27,4.25,12.34a17.53,17.53,0,0,1,.71,6.92l-2.84,4h0l0,0-8.2.78C356.22,80.77,358.85,56.14,359,55Zm-.44-8.34c0,.4.08.83.14,1.3v7c-.36.44-5,5.52-35.29,14.88-.53-.55-1.09-1.1-1.66-1.64L341.8,38.28l5.84,1.35A21.06,21.06,0,0,1,357.92,46,5,5,0,0,0,358.52,46.7ZM258.69,89.94a14.58,14.58,0,0,1-12.23,7.85l-24.37.46a40.27,40.27,0,0,0,4.91-2.1l28.57-11.61-.11-.28L226.87,95.87a41,41,0,0,1-5.74,2.4L205,98.58c.06-1.27,0-5.09-.19-9.85l19.09-1.38,0-.3-19.08,1.38c-.37-10.83-1.06-26.2-1.1-27.15.08-2.17.23-4.3.42-6.33,4-.35,28.29-2.4,35.65-1.72l2.25.2c7.45.63,15.89,1.35,26.72,7.25.06,0,4.58,2.41,7.55,4.23Zm-54.28,8.65L121,100.51c-.16,0-3.93.26-4.81-2.67l-.06-.11a7.22,7.22,0,0,1-1-2.5l89.12-6.45C204.38,93.6,204.48,97.46,204.41,98.59ZM96.41,75C85.63,61.14,65.76,58,52.1,68a17.15,17.15,0,0,1-2.65-.87l-.65-.24-1.5-.47c1.78-1.46,10.39-8,21.72-8.16a47.59,47.59,0,0,1,8.22.54C90.07,60.81,101.11,71,104.72,84l.29-.08a36.21,36.21,0,0,0-13.59-19.5c1.59-.29,16.74-3.07,19.33-3v0c.15,7.13,2.85,27.59,2.88,27.78a36.08,36.08,0,0,0,.78,5.75l-11.89.86C102.43,88.89,101.14,81.15,96.41,75ZM52.05,68ZM39.76,97.51c0,.25,0,.51,0,.77-2,.3-13.81,2-17.23,0A7.8,7.8,0,0,1,21,95h0l0,0c-1.34-4.56-2.16-12.45-2.63-18.35L39,76c-2.76,5.6-3.89,12.52-3.4,20.9l.3,0c-.81-13.78,2.76-23.6,10.89-30l1.87.58.61.23c1.05.41,1.74.65,2.2.79A28.82,28.82,0,0,0,40.86,83.27C39.51,87.81,39.64,92.74,39.76,97.51ZM14.5,83.15c-.41-2.41,2-5.82,3.17-7.24.42,5.62,1.19,13.35,2.48,18.32C16.18,90.28,14.51,83.21,14.5,83.15ZM19,55.93c.59-.31,1.19-.61,1.79-.9,4.2-1,6.2-.22,6.78.1a22.67,22.67,0,0,0-6.91,7.14c-.53-.37-2.72-2-2.79-4A3.09,3.09,0,0,1,19,55.93Zm8.93-.67a.14.14,0,0,0,.07-.11A.13.13,0,0,0,28,55c-.08-.06-1.66-1.33-5.92-.56,1.78-.8,3.59-1.54,5.37-2.26L28,52a81.44,81.44,0,0,1,12.8-4c2.78-.62,5.85-1.29,9.37-2,.65-.14,1.33-.25,2-.37.91-.16,1.86-.32,2.79-.55a.11.11,0,0,1,.1.08.06.06,0,0,1,0,.07,53,53,0,0,1-8.52,5.08c-.66.3-16.31,7.32-20,9.7a35.89,35.89,0,0,0-7.35,5.54C20.67,62.48,23.47,58,27.94,55.26ZM39.11,75.65l-20.8.65c-.29-3.75-.43-6.65-.46-7.27a1.11,1.11,0,0,0,.16-.3v-.06c.39-3.14,7.65-7.5,8.7-8.11l19.69,6.17A27,27,0,0,0,39.11,75.65Zm73.3-30.28c3.62-.43,62.18-4.71,93.66-7a137.78,137.78,0,0,0-2.52,16.31h0c-18.47.47-85.34,5.8-92.19,6.35C111.33,59,111.33,49.5,112.41,45.37ZM118.3,26c-1,2.74-4.51,12.21-6.36,18.77l-5.72.31-1.39.12a14.38,14.38,0,0,1-3.14.08A4.94,4.94,0,0,1,97.6,42a3.22,3.22,0,0,1,1.31-3.52A126.39,126.39,0,0,1,118.3,26ZM299.35,16l32,10.13L329,26.4l-37.92,3.5-9.06-16.5,16.82,2.79A.48.48,0,0,0,299.35,16Zm-7.08,20.14-47.42,4.91,0,.3,47.37-4.91a34.17,34.17,0,0,1-.71,4.23c-.12.54-.2.93-.23,1.18-.11,1-5.68,9.56-9.39,15.09l-5.44,7.72c-2.93-1.8-7.35-4.12-7.59-4.24-10.88-5.93-19.36-6.65-26.84-7.29l-2.24-.2c-7.37-.68-31.5,1.36-35.65,1.72a136.85,136.85,0,0,1,2.53-16.3c9.13-.67,38.87-3.64,39.17-3.67l45-4.15C292.17,31.82,292.42,34,292.27,36.14Zm-161.86,7.2V39.5a6.87,6.87,0,0,1,1.69-.27h.07l.06,0a4,4,0,0,0,2-2.56l.34,0a.31.31,0,0,0,.27-.3v-.72c.33-.06.35-.14.38-.28a13.93,13.93,0,0,0,.16-3.25c0-.35,0-.69,0-1,0-.69,0-1.37,0-2a1.28,1.28,0,0,0,0-.19,1.71,1.71,0,0,0-.2-1,1.78,1.78,0,0,0-1.3-.64c.07-1,.38-4.47.6-7,1.1-.49,2.24-1,3.4-1.55,2.17-1,4.41-2,6.49-2.87a127.41,127.41,0,0,1,16.81-5.61l1.36-.33A106.36,106.36,0,0,1,176.87,7a216.91,216.91,0,0,1,26-1.45H203l1.36,0-7.69,32.93C180.93,39.61,150.18,41.84,130.41,43.34ZM120,36.71l1.74-.11h1.76l.6,0c.23,0,.47,0,.71,0a3.78,3.78,0,0,0,.56,0,.68.68,0,0,0,0,.54.59.59,0,0,0,.23.2c-2.1.65-6.25,1.79-7.6,2.15A6,6,0,0,1,120,36.71Zm-.19-.6h0l-2.76.17,3-9.22,12-5.79-.71,5.92c-4,.22-8.43,1.85-9.53,5.91a12.31,12.31,0,0,0-.41,2.91l-1.63.1Zm14.82-7.95a1.42,1.42,0,0,1,.09.65,1.48,1.48,0,0,0,0,.22c0,.65,0,1.32,0,2,0,.33,0,.68,0,1A15,15,0,0,1,134.7,35c-.57.08-2.56.16-3.46.2l-.82,0-2.36.19h-.42a3,3,0,0,0-1.57.35,2.24,2.24,0,0,1-1.22.25l-.68,0-.63,0h-1.46a11.83,11.83,0,0,1,.39-2.73c1.07-3.94,5.63-5.41,9.55-5.49l.44,0,.74,0C134,27.74,134.47,27.87,134.67,28.16ZM134.28,36l-.3,0c-1.7.19-6.45.63-8,.73a2,2,0,0,1,.18-.31l-.06,0,.28-.13a2.38,2.38,0,0,1,1.27-.25l.45,0,2.36-.19.79,0c1.51-.06,2.44-.11,3-.15Zm-16.4,3.83a.24.24,0,0,1-.16.2l0-.15Zm8.7-2.5c1.72-.14,5.25-.47,7-.65a3.31,3.31,0,0,1-1.6,1.92c-.54,0-3.7.2-4.45,2.55-1.18-.09-7-.56-9.41-1.4C119.8,39.34,125,37.9,126.58,37.36ZM205,5.4H210l-3.86,32.38-8.93.64Zm58.8,6.08,1.47.45V32.29l-1.47.13Zm2.07.75,12.08,2.44c1.75.65,2.49,1.8,3.34,3.36l6.63,12.16-22.05,2Zm-2.68,20.25-17.35,1.6c-.24,0-19.25,1.92-31.54,3l1.13-31.49a250.25,250.25,0,0,1,47.76,5.86Zm-49.49,4.68c-2.77.24-5.16.45-6.87.57L210.65,5.4c1.36,0,2.75,0,4.14,0ZM281.3,13.28,290.47,30l-1.93.17-6.77-12.39c-.88-1.62-1.71-2.91-3.7-3.65l-12.48-2.52a.3.3,0,0,0-.26.07l-1.58-.48a.32.32,0,0,0-.23-.23A251.64,251.64,0,0,0,215.1,5a.27.27,0,0,0-.25.14c-1.4,0-2.8,0-4.16,0l.19-1.62A246.87,246.87,0,0,1,246.5,6.66c5.76.93,11.63,2.13,17.3,3.3,4.43.91,9,1.86,13.51,2.66ZM210.08,5.09H205a.34.34,0,0,0-.19-.14h-.06l-1.44,0h-.43a216.06,216.06,0,0,0-26,1.45,109.7,109.7,0,0,0-14.43,2.91L161,9.61a126.65,126.65,0,0,0-16.9,5.63c-2.09.84-4.34,1.88-6.52,2.88-1.21.56-2.4,1.11-3.54,1.62l-.17.07V20c-.06.64-.53,5.81-.63,7.14h-.05c-.27,0-.54,0-.78,0l-.39,0,.77-6.37a.31.31,0,0,0-.13-.28.27.27,0,0,0-.3,0l-12.65,6.08a.35.35,0,0,0-.16.18l-3.2,9.77a.29.29,0,0,0,0,.27.3.3,0,0,0,.24.12h0l2.36-.15a6.77,6.77,0,0,0-1.66,2.83.34.34,0,0,0-.09.22.38.38,0,0,0,.22.36c2.37,1,9.43,1.56,10.22,1.62H128l.06-.25a2.74,2.74,0,0,1,1.72-1.84v3.67c-8.92.67-15.49,1.19-17.23,1.37,2.07-7.24,6-17.83,6.52-19.13,3.23-1.69,6.46-3.27,9.72-4.83C143,14,158.27,7.43,174.6,5.08c9.23-1.32,18.81-1.46,28.07-1.6h1.22c2.13,0,4.26,0,6.38,0ZM114.23,89.16c0-.21-2.72-20.63-2.88-27.73v-.08c6.82-.55,73.64-5.88,92.17-6.35-.18,2-.33,4.13-.41,6.28,0,.24.72,16.14,1.1,27.2L115,94.93A35,35,0,0,1,114.23,89.16ZM276.82,65.23c.59.37,1.09.72,1.45,1a38.75,38.75,0,0,0-4.54,3.38Zm1.71.82A18.17,18.17,0,0,0,277,65l5.43-7.7c.95-1.42,9.32-13.91,9.49-15.37,0-.21.11-.61.22-1.11a34.67,34.67,0,0,0,.73-4.42l33.31-3.45a2.21,2.21,0,0,0,.42,1l.07.07a27.16,27.16,0,0,0,4.82,2c2.62.57,6.43,1.44,9.69,2.19L321.26,67.83a29.07,29.07,0,0,0-6.46-4.5,32.2,32.2,0,0,0-14.48-3h0c-5.83,0-10.17.62-14.08,2A39.45,39.45,0,0,0,278.53,66.05ZM357,44.2a21.53,21.53,0,0,0-9.26-5.15c-.1,0-10.71-2.5-16.14-3.68a27.3,27.3,0,0,1-4.6-1.85,1.14,1.14,0,0,1-.24-.91c.07-.21.32-.36.72-.44l.33-.05c.73-.08,2.54-.33,4.83-.64,4.79-.66,12-1.65,14.59-1.77l7-1.12h.06a.73.73,0,0,1,.28,0c.86,0,1.39,1.12,1.47,3.06l.32,10.2A13.32,13.32,0,0,0,357,44.2Zm-4-17.58,1.4.15c3,.3,4.08.71,4.28.91l-.09.07-2.36,1.62c-.65-1.73-1.92-1.45-2.16-1.37l-6.91,1.12c-2.55.11-9.52,1.06-14.61,1.76-2.29.31-4.09.56-4.81.64a2.28,2.28,0,0,0-.39.06,1.44,1.44,0,0,0-1.17.82,1,1,0,0,0-.05.23l-33.3,3.45c.13-2.06-.11-4.19-1.29-5.62L329.1,27c5.11-.59,9.37-.92,13.39-1A82.48,82.48,0,0,1,353.05,26.62Zm-11.92-1.21c-2.79.1-5.73.31-9,.65L299.44,15.71a.48.48,0,0,0-.3-.45c-2-.78-5.32-2-8.43-3.2L288.28,10C294,11.48,320.76,18.69,341.13,25.41ZM285.86,8.65l3.23,2.81-6.36-2.38c-1.91-.59-3.85-1.12-5.79-1.61l8.24.9A1.37,1.37,0,0,1,285.86,8.65Zm-18.59-6.2a8.35,8.35,0,0,1,2.05-.26H274a.15.15,0,0,1,.15.15V4a4,4,0,0,0,.64,2.16l.61.93c-5-1.21-10-2.13-14.82-2.86Zm-155,22.93,6.25-3.2.86-.45c9-4.6,26.22-13,41.09-17.21,1.33-.37,2.69-.67,4.09-1,8.13-1.7,16.6-2.22,24.59-2.61C197,.57,205.56.5,215.41.74c11.2.28,22.18,1.34,32.38,2.45,9.88,1.08,22.77,2.79,34.74,6.46.1,0,10.12,3.77,15.3,5.75L277.41,12c-4.48-.79-9.06-1.74-13.49-2.65C258.24,8.2,252.37,7,246.6,6.07a244.47,244.47,0,0,0-42.72-3.21l-1.22,0c-9.28.14-18.87.28-28.15,1.61-16.4,2.35-31.78,9-45.95,15.75a178.11,178.11,0,0,0-23,12.62L103.22,30ZM98.75,32.32l3.92-2,2.44,2.89c-2.18,1.47-4.37,3-6.57,4.78A3.84,3.84,0,0,0,97,42.14a5.57,5.57,0,0,0,4.59,3.78,7.82,7.82,0,0,0,1.08.06c.74,0,1.48-.07,2.2-.14.46,0,.92-.09,1.36-.11l5.52-.3c-1.06,4.37-1,13.73-1,15.66C108,61,91.91,64,91.22,64.14l0,.15a33,33,0,0,0-14-5.83A48.26,48.26,0,0,0,69,57.92c-11.81.15-20.68,7.19-22.06,8.35L27.41,60.14c4.46-2.64,19.18-9.25,19.34-9.33a53.42,53.42,0,0,0,8.64-5.15.66.66,0,0,0,.22-.67l.18-.05,2.67-.66c1.76-.44,3.58-.9,5.37-1.28L68,42.15c2.81-.57,5.72-1.15,8.56-1.85A100,100,0,0,0,98.75,32.32Zm-65,16.56c6.12-2.79,11.68-5.2,17.72-6.47,1.55-.33,3.14-.6,4.7-.82,6.21-.84,12.81-1.47,20.57-2l-.3.07c-2.83.7-5.73,1.28-8.54,1.85l-4.17.85c-1.81.38-3.63.84-5.4,1.29l-2.66.66-.39.09-.1,0a.68.68,0,0,0-.4,0c-.88.22-1.82.38-2.72.53-.68.12-1.38.24-2,.38-3.52.75-6.59,1.42-9.37,2a83.68,83.68,0,0,0-9.91,2.87ZM12.41,60.24c.37-.26.8-.62,1.13-.88s.37-.3.44-.35c.85-.59,1.62-1.1,2.38-1.57.6-.38,1.23-.74,1.86-1.08a3,3,0,0,0-.64,2c.08,2.11,2.39,3.83,2.92,4.2a34,34,0,0,0-2.06,3.89,5,5,0,0,0-1,2.15s0,.09,0,.08L10.3,72.12c-.06,0-.16,0-.17,0h0c.61-.9,1-1.57,1.4-2.12,1.24-1.91,1.58-2.43,5.44-6.85a.77.77,0,0,0,.18-.69.68.68,0,0,0-.43-.46L12.43,60.4a.08.08,0,0,1-.06-.07A.1.1,0,0,1,12.41,60.24ZM3.89,69.9a10.61,10.61,0,0,1,1-.35,16.45,16.45,0,0,0-1,2.26C3.88,71.11,3.89,70.28,3.89,69.9Zm1.87-.54a.35.35,0,0,0,0-.37l-.14-.19-.19,0a9.32,9.32,0,0,0-1.89.57c1-2,5.54-7.14,8.33-8.71a.67.67,0,0,0,.35.29l4.29,1.56s0,0,0,0a.17.17,0,0,1,0,.14c-3.89,4.46-4.26,5-5.49,6.92-.36.55-.79,1.21-1.4,2.11a.59.59,0,0,0,0,.6.77.77,0,0,0,.66.39.78.78,0,0,0,.31-.07l6.7-3.27c0,.9.14,3,.33,5.64-.81,1-4.21,5.17-3.69,8.24,0,.07.12.51.32,1.18L3.82,88.22a15.21,15.21,0,0,1-.62-1.39c1.09-5.71,6.51-13.87,6.57-14l-.25-.17c-.06.08-5.21,7.84-6.51,13.58a6.92,6.92,0,0,1-.35-1.5C2.21,74.85,5.39,69.89,5.76,69.36ZM5.62,92.15l-.19,0,.12-.08A.36.36,0,0,0,5.62,92.15Zm.1.62.45,0,.67.77H5.72ZM1.87,98a2,2,0,0,1-1.14-.55c-.54-.67,1-2,1.78-2.79.18-.16.33-.31.45-.43H7.39a48.17,48.17,0,0,0,10.45,8.07l-3.72-1.07C10.12,100,6,98.83,1.87,98Zm37.92,5.12a.66.66,0,0,1-.48.15c-3.46.18-7,.12-10.44.06-1.71,0-3.48-.06-5.21-.06h0a15.21,15.21,0,0,1-3.61-.36h0l-.09,0a1.23,1.23,0,0,1-.39-.17v-.1l-.18-.1A49.12,49.12,0,0,1,7.74,93.69,24,24,0,0,1,4,88.5l10.36-3.76c.77,2.53,2.68,7.66,6.15,10.59a7.89,7.89,0,0,0,1.71,3.42l0,0h0c1.34.78,3.82,1,6.51,1a82.63,82.63,0,0,0,11.08-1c0,.9,0,1.8,0,2.68,0,.23,0,.45,0,.66C39.89,102.61,39.91,103,39.79,103.08Zm31.15,16.14A26.05,26.05,0,1,1,97,93.17,26.07,26.07,0,0,1,70.94,119.22Zm26.13-20.8a26.65,26.65,0,1,0-52.78-5.25q0,1.27.12,2.52l-4.08.16c-.1-4.21-.06-8.48,1.1-12.41a28.4,28.4,0,0,1,11-15h0c13.41-9.84,32.94-6.73,43.53,6.93,5.26,6.79,6.19,15.69,6,23.17Zm5.14,5.66,0-.06c.22-2.38.39-5.06.37-7.89l12-.86a8.4,8.4,0,0,0,1.1,2.8c.89,2.83,4.13,3.05,5.11,3.05H121l83.72-1.92h0l14.45-.28a84.29,84.29,0,0,1-11.23,2.55l-73.4,2.83v.17C123.81,104.75,112.77,105,102.21,104.08Zm164.92.06H151.72c-2.54,0-5.13,0-7.72.08L208,101.76a84.5,84.5,0,0,0,12.27-2.87l26.24-.5a15.21,15.21,0,0,0,12.67-8h9.37c-.15.8-.28,1.61-.39,2.45C267.8,95.15,266.89,102.17,267.13,104.14Zm44.36-37.47a33.66,33.66,0,0,0-28.19,1.56c-8,4.26-12.68,11.16-14.68,21.55h-9.09l13.39-19a38.68,38.68,0,0,1,13.42-8.19,40.5,40.5,0,0,1,14-2h0a32,32,0,0,1,14.35,3,29.33,29.33,0,0,1,6.42,4.48l-2.16,3.22A27.47,27.47,0,0,0,311.49,66.67Zm7.89,5,2.16-3.21a35.12,35.12,0,0,1,9.07,13,17.42,17.42,0,0,1,.55,1.7l.29-.07a15.09,15.09,0,0,0-.56-1.74,34.26,34.26,0,0,0-7.29-11.3c27.22-8.43,33.66-13.3,35-14.63-.84,7.89-3,26.9-3.79,28.39l-26.31,2.5a20.83,20.83,0,0,0-2.37-6.4A34.49,34.49,0,0,0,319.38,71.7Zm24.49,26.13-1.57.25-1.81.18c-3.29.31-9.42.89-11.28,1.8l-.07,0,0-1.78a57.11,57.11,0,0,0-.6-11.56l34.58-3.28-.32.49c-1.45,2.24-3,4.57-4.48,6.83C354.71,96.13,349.69,96.92,343.87,97.83Zm21.9-10.46A4.71,4.71,0,0,0,364.38,91l-9,3.75a14.51,14.51,0,0,0,3.5-3.7c1.52-2.27,3-4.6,4.49-6.85l.54-.84,1.89-2.66Z"/><path class="cls-1" d="M64.39,105.35l4.08-7a.3.3,0,0,0-.52-.3l-.12.19a5.47,5.47,0,0,1-.76-.53l.16-.18a.31.31,0,0,0,0-.43.3.3,0,0,0-.43,0l-5.35,6,0,0a.13.13,0,0,0,0,0l-1.76,2a.31.31,0,0,0,0,.43.32.32,0,0,0,.2.08.34.34,0,0,0,.23-.1l1.6-1.8a13.79,13.79,0,0,0,2.06,1.51l-1.21,2.07a.3.3,0,0,0,.11.41.28.28,0,0,0,.15,0,.29.29,0,0,0,.26-.14l1.36-2.33Zm-2.34-2,4.62-5.18a7.34,7.34,0,0,0,.86.6l-3.51,6A13.26,13.26,0,0,1,62.05,103.35Z"/><path class="cls-1" d="M69.74,86.72h0l0,.5a.29.29,0,0,0,.3.27h0a.3.3,0,0,0,.27-.33l0-.22a7.3,7.3,0,0,1,.93,0l0,.24a.29.29,0,0,0,.27.33h0a.3.3,0,0,0,.3-.27l.05-.54h0l1-10.18a.32.32,0,0,0-.27-.33.3.3,0,0,0-.33.27l-.27,2.67a13.93,13.93,0,0,0-2.5,0l-.27-2.69a.3.3,0,1,0-.6.06l1,10.2Zm2.29-7-.67,6.63a7.42,7.42,0,0,0-1,0l-.66-6.63A13.52,13.52,0,0,1,72,79.7Z"/><path class="cls-1" d="M73.54,88.54h0a.29.29,0,0,0,.3-.25l.1-.56a5.9,5.9,0,0,1,1,.76l-.5.31a.29.29,0,0,0-.09.41.27.27,0,0,0,.25.15.3.3,0,0,0,.16,0l3.39-2.13c2.93-1.93,1.82-4.09,1.82-4.09a12.32,12.32,0,0,0-4.61-5l0,0c-.41-.27-.85-.53-1.33-.79a.3.3,0,0,0-.41.13.29.29,0,0,0,.13.4c.4.22.78.45,1.14.67l-.22,1.26,0,.07a.43.43,0,0,0,0,.16L73.48,87.1s0,0,0,0a.31.31,0,0,0,0,.19l-.15.88A.3.3,0,0,0,73.54,88.54Zm4.37-1.86-2.36,1.48a6.65,6.65,0,0,0-1.46-1.06l1.15-6.74a13.47,13.47,0,0,1,3.62,1.85,6.84,6.84,0,0,1,.65,1.13S80.39,85,77.91,86.68Zm-.23-5.91a14.14,14.14,0,0,0-2.33-1l.14-.86A14.4,14.4,0,0,1,77.68,80.77Z"/><path class="cls-1" d="M57.27,85.72c.33-.32.66-.61,1-.88l1.19.62s0,0,0,0h0l7.44,3.9a.25.25,0,0,0,.14,0,.32.32,0,0,0,.27-.16.31.31,0,0,0-.13-.41l-.48-.25a6.39,6.39,0,0,1,1-.79l.15.59a.3.3,0,0,0,.29.22h.07a.31.31,0,0,0,.22-.37l-.22-.9a.4.4,0,0,0,0-.15l0,0-.7-2.81c-.94-3.39-3.34-3-3.34-3a7.84,7.84,0,0,0-1.33.28l-.08,0A13.93,13.93,0,0,0,58,84.24l0,0c-.38.31-.77.64-1.16,1a.3.3,0,0,0,0,.43A.31.31,0,0,0,57.27,85.72Zm1.5-1.29a14.39,14.39,0,0,1,2.46-1.5,13.92,13.92,0,0,0-1.68,1.91ZM64.24,82c.07,0,1.89-.28,2.67,2.55l.68,2.68a6.59,6.59,0,0,0-1.42,1.1l-6.08-3.19A13.24,13.24,0,0,1,63,82.26,7.13,7.13,0,0,1,64.24,82Z"/><path class="cls-1" d="M59.62,103.87c-.2-.41-.37-.81-.53-1.21l7-6.84a.3.3,0,1,0-.42-.43l-.25.24A6.39,6.39,0,0,1,65,94.57l.42,0a.29.29,0,0,0,.32-.28A.29.29,0,0,0,65.5,94l-.74,0a.33.33,0,0,0-.17,0h0l-3.07-.21C58,93.57,57.63,96,57.63,96a12.25,12.25,0,0,0,.82,6.71s0,0,0,0a15.17,15.17,0,0,0,.61,1.42.29.29,0,0,0,.27.17.28.28,0,0,0,.13,0A.31.31,0,0,0,59.62,103.87ZM58.2,99.25a13.73,13.73,0,0,0,1.29,2.18l-.63.61A14,14,0,0,1,58.2,99.25Zm3.28-4.92,2.93.2A6.94,6.94,0,0,0,65,96.07L59.93,101a13.67,13.67,0,0,1-1.84-3.61,7.77,7.77,0,0,1,.13-1.31S58.52,94.19,61.48,94.33Z"/><path class="cls-1" d="M77.62,107.24a12.53,12.53,0,0,1-1.32.13l-.58-1.18v0a.41.41,0,0,0-.07-.11l-3.38-6.82,0-.07L72,98.59a.3.3,0,0,0-.4-.14.31.31,0,0,0-.14.41l.11.22a5.91,5.91,0,0,1-1,0l.11-.28a.31.31,0,0,0-.17-.39.29.29,0,0,0-.39.17l-1.49,3.71c-1.24,3.29.93,4.38.93,4.38A11.7,11.7,0,0,0,75.33,108l.77,0h.06a14.43,14.43,0,0,0,1.54-.14.3.3,0,1,0-.08-.6Zm-8.5-4.71,1.14-2.86c.23,0,.45,0,.68,0s.58,0,.88-.06L75,106.07a13.27,13.27,0,0,1-4,.62,8.2,8.2,0,0,1-1.2-.52S68.08,105.31,69.12,102.53Zm3.66,4.64a14.09,14.09,0,0,0,2.48-.55l.38.78A14.27,14.27,0,0,1,72.78,107.17Z"/><path class="cls-1" d="M87,91.27a.3.3,0,0,0-.6-.1,12.21,12.21,0,0,1-.28,1.29l-1.22.18a.27.27,0,0,0-.12,0h0a.32.32,0,0,0-.19.07l-7.23,1.06h0a.34.34,0,0,0-.2,0l-.7.11a.3.3,0,0,0-.26.34.3.3,0,0,0,.3.26h0l.38,0c0,.11-.05.22-.08.33a5.1,5.1,0,0,1-.28.74l-.3-.25a.29.29,0,0,0-.42,0,.3.3,0,0,0,0,.42l3.07,2.56a4.36,4.36,0,0,0,2.7,1.11,2.61,2.61,0,0,0,1.76-.64,12.35,12.35,0,0,0,3.28-5.91s0,0,0,0C86.77,92.31,86.88,91.81,87,91.27Zm-1.06,1.82a14.73,14.73,0,0,1-1.1,2.66,14.26,14.26,0,0,0,.24-2.53Zm-3,5.2s-1.35,1.36-3.67-.49L77,95.89a7.22,7.22,0,0,0,.38-1,5.61,5.61,0,0,0,.13-.59l7-1a13.88,13.88,0,0,1-.64,4A7.25,7.25,0,0,1,82.94,98.29Z"/><path class="cls-1" d="M65.09,92.31h.06a.3.3,0,0,0,.07-.59l-.22,0a4.57,4.57,0,0,1,.27-.89l.22.09a.27.27,0,0,0,.12,0,.31.31,0,0,0,.28-.18.32.32,0,0,0-.16-.4L55.85,86a.3.3,0,0,0-.4.15.3.3,0,0,0,.16.4l2.36,1a14.35,14.35,0,0,0-.79,2.4l-2.51-.55a.3.3,0,0,0-.36.23.3.3,0,0,0,.23.36l2.72.59.08,0h.09Zm-6.57-4.49,6.2,2.73a5.79,5.79,0,0,0-.31,1l-6.64-1.44A13.05,13.05,0,0,1,58.52,87.82Z"/><path class="cls-1" d="M75.66,97.46l0-.06,0,0L75.26,97a.29.29,0,0,0-.42,0,.3.3,0,0,0,0,.43l.15.17a6.84,6.84,0,0,1-.74.56l-.12-.21a.31.31,0,0,0-.41-.11.29.29,0,0,0-.11.41l.27.46v0l0,0,3.76,6.44a.11.11,0,0,0,0,.08l0,0L79,107.57a.32.32,0,0,0,.26.15.32.32,0,0,0,.26-.46l-1.2-2.06a15.17,15.17,0,0,0,2-1.53L82,105.48a.32.32,0,0,0,.22.1.3.3,0,0,0,.2-.08.3.3,0,0,0,0-.43ZM78,104.68l-3.51-6a5.82,5.82,0,0,0,.84-.64L80,103.22A13.39,13.39,0,0,1,78,104.68Z"/><path class="cls-1" d="M87.51,89.47a.3.3,0,0,0-.36-.23l-2.5.54a14.34,14.34,0,0,0-.82-2.39l2.38-1a.3.3,0,0,0,.15-.4A.29.29,0,0,0,86,85.8L83.4,86.92l-.11,0-.06,0L76.6,89.91h0l0,0-.45.2a.3.3,0,0,0-.15.4.31.31,0,0,0,.28.18.27.27,0,0,0,.12,0l.2-.09a5.76,5.76,0,0,1,.31.88l-.24,0a.3.3,0,0,0-.23.36.3.3,0,0,0,.29.24h.07l10.55-2.29A.31.31,0,0,0,87.51,89.47Zm-10.43.89,6.19-2.72a13,13,0,0,1,.79,2.27l-6.64,1.44A5.79,5.79,0,0,0,77.08,90.36Z"/><path class="cls-1" d="M71.93,89.13a1,1,0,1,0-1,1A1,1,0,0,0,71.93,89.13Zm-1.38,0a.39.39,0,1,1,.39.39A.39.39,0,0,1,70.55,89.13Z"/><path class="cls-1" d="M68.19,92.12a1,1,0,0,0-.06-.76,1,1,0,0,0-.58-.49,1,1,0,0,0-.62,1.89,1.12,1.12,0,0,0,.31,0A1,1,0,0,0,68.19,92.12Zm-.57-.19a.42.42,0,0,1-.5.26.4.4,0,0,1-.25-.5.39.39,0,0,1,.37-.27l.12,0A.4.4,0,0,1,67.62,91.93Z"/><path class="cls-1" d="M67.85,95.57a1,1,0,0,0-.18.74,1,1,0,0,0,1,.84,1,1,0,0,0,.59-1.8A1,1,0,0,0,67.85,95.57Zm.49.36a.38.38,0,0,1,.31-.16.35.35,0,0,1,.23.07.39.39,0,0,1,.09.55.41.41,0,0,1-.55.09.41.41,0,0,1-.15-.26A.38.38,0,0,1,68.34,95.93Z"/><path class="cls-1" d="M72.42,96.74a1,1,0,0,0,.81.41.94.94,0,0,0,.58-.19,1,1,0,0,0,.4-.65,1,1,0,0,0-.18-.74,1,1,0,0,0-1.39-.22A1,1,0,0,0,72.42,96.74Zm.57-.9a.4.4,0,0,1,.55.09.38.38,0,0,1,.07.29.41.41,0,0,1-.15.26.41.41,0,0,1-.55-.09A.4.4,0,0,1,73,95.84Z"/><path class="cls-1" d="M74.33,90.87a1,1,0,0,0-.58.49,1,1,0,0,0-.06.76,1,1,0,0,0,1,.69,1,1,0,0,0,.3,0,1,1,0,1,0-.61-1.89Zm.43,1.32a.41.41,0,0,1-.5-.26.4.4,0,0,1,.26-.49l.12,0a.39.39,0,0,1,.37.27A.4.4,0,0,1,74.76,92.19Z"/><path class="cls-1" d="M70.94,74.31A18.86,18.86,0,1,0,89.8,93.17,18.88,18.88,0,0,0,70.94,74.31Zm0,37.42A18.56,18.56,0,1,1,89.5,93.17,18.58,18.58,0,0,1,70.94,111.73Z"/><path class="cls-1" d="M298.88,75A18.13,18.13,0,1,0,317,93.17,18.16,18.16,0,0,0,298.88,75Zm0,35.66a17.53,17.53,0,1,1,17.53-17.53A17.54,17.54,0,0,1,298.88,110.7Z"/><path class="cls-1" d="M298.88,91.1A2.08,2.08,0,1,0,301,93.17,2.07,2.07,0,0,0,298.88,91.1Zm0,3.84a1.77,1.77,0,1,1,1.77-1.77A1.77,1.77,0,0,1,298.88,94.94Z"/><path class="cls-1" d="M292.33,105.35l4.08-7a.3.3,0,0,0-.11-.41.31.31,0,0,0-.41.11l-.11.19a5,5,0,0,1-.77-.53l.16-.18a.3.3,0,1,0-.45-.4l-5.35,6,0,0,0,0-1.76,2a.31.31,0,0,0,0,.43.32.32,0,0,0,.2.08.33.33,0,0,0,.23-.1l1.6-1.8a13.87,13.87,0,0,0,2.07,1.51l-1.21,2.07a.29.29,0,0,0,.11.41.26.26,0,0,0,.15,0,.31.31,0,0,0,.26-.14l1.36-2.33Zm-2.34-2,4.62-5.18a7.34,7.34,0,0,0,.86.6l-3.51,6A13.26,13.26,0,0,1,290,103.35Z"/><path class="cls-1" d="M311.23,87l-.06,0-6.63,2.91h0l0,0-.45.2a.3.3,0,0,0,.12.58.27.27,0,0,0,.12,0l.21-.09a7,7,0,0,1,.3.88l-.24,0a.31.31,0,0,0-.23.36.31.31,0,0,0,.3.24h.06l10.55-2.29a.3.3,0,0,0,.23-.36.3.3,0,0,0-.36-.23l-2.5.54a14.34,14.34,0,0,0-.82-2.39l2.38-1a.31.31,0,0,0,.16-.4.3.3,0,0,0-.4-.15l-2.57,1.12Zm.77,3-6.63,1.44a6.8,6.8,0,0,0-.34-1l6.19-2.72A13,13,0,0,1,312,89.91Z"/><path class="cls-1" d="M297.68,86.72h0l.05.5a.3.3,0,0,0,.3.27h0a.3.3,0,0,0,.27-.33l0-.22a7.22,7.22,0,0,1,.93,0l0,.24a.3.3,0,0,0,.27.33h0a.29.29,0,0,0,.3-.27l.06-.54h0l1-10.18a.3.3,0,0,0-.6-.06L300,79.1a13.93,13.93,0,0,0-2.5,0l-.27-2.69a.3.3,0,0,0-.33-.27.32.32,0,0,0-.27.33l1,10.2S297.68,86.71,297.68,86.72Zm2.29-7-.66,6.63a7.36,7.36,0,0,0-1.05,0l-.67-6.63A13.52,13.52,0,0,1,300,79.7Z"/><path class="cls-1" d="M301.49,88.54h.05a.29.29,0,0,0,.29-.25l.1-.56a5.9,5.9,0,0,1,1,.76l-.5.31a.29.29,0,0,0-.09.41.29.29,0,0,0,.25.15.3.3,0,0,0,.16,0l3.39-2.13c2.93-1.93,1.82-4.09,1.82-4.09a12.24,12.24,0,0,0-4.6-5l0,0c-.41-.27-.85-.53-1.33-.79a.3.3,0,1,0-.28.53c.41.22.78.45,1.14.67l-.22,1.26a.21.21,0,0,0,0,.07.22.22,0,0,0,0,.16l-1.21,7.08,0,0a.31.31,0,0,0,0,.19l-.15.88A.3.3,0,0,0,301.49,88.54Zm4.37-1.86-2.36,1.48A6.89,6.89,0,0,0,302,87.1l1.15-6.74a13.41,13.41,0,0,1,3.61,1.85,7.5,7.5,0,0,1,.66,1.13C307.49,83.41,308.31,85.06,305.86,86.68Zm-.24-5.91a13,13,0,0,0-2.33-1l.15-.86A13.81,13.81,0,0,1,305.62,80.77Z"/><path class="cls-1" d="M285.21,85.72c.33-.32.66-.61,1-.88l1.18.62,0,0h0l7.44,3.9a.27.27,0,0,0,.14,0,.3.3,0,0,0,.14-.57l-.48-.25a6.39,6.39,0,0,1,1-.79l.15.59a.31.31,0,0,0,.29.22h.08a.31.31,0,0,0,.22-.37l-.23-.9a.27.27,0,0,0,0-.15s0,0,0,0l-.71-2.81c-.94-3.39-3.34-3-3.33-3a7.84,7.84,0,0,0-1.34.28l-.08,0A13.93,13.93,0,0,0,286,84.24l0,0c-.38.31-.77.64-1.16,1a.3.3,0,0,0,.42.44Zm1.5-1.29a14.06,14.06,0,0,1,2.47-1.5,13.35,13.35,0,0,0-1.69,1.91ZM292.18,82s1.89-.31,2.68,2.55l.67,2.68a6.59,6.59,0,0,0-1.42,1.1L288,85.12a13.47,13.47,0,0,1,2.88-2.86A7.13,7.13,0,0,1,292.18,82Z"/><path class="cls-1" d="M287.57,103.87a11.42,11.42,0,0,1-.53-1.21l7-6.84a.3.3,0,0,0,0-.43.29.29,0,0,0-.42,0l-.26.24a6.39,6.39,0,0,1-.39-1.06l.43,0a.29.29,0,0,0,.32-.28.31.31,0,0,0-.28-.32l-.75,0a.3.3,0,0,0-.16,0h0l-3.06-.21c-3.52-.17-3.89,2.24-3.88,2.24a12.25,12.25,0,0,0,.82,6.71.08.08,0,0,0,0,0c.18.46.37.93.61,1.42a.31.31,0,0,0,.28.17l.13,0A.31.31,0,0,0,287.57,103.87Zm-1.43-4.62a13.73,13.73,0,0,0,1.29,2.18l-.62.61A14.11,14.11,0,0,1,286.14,99.25Zm3.28-4.92,2.94.2a6.45,6.45,0,0,0,.56,1.54L287.87,101A13.67,13.67,0,0,1,286,97.4a7.07,7.07,0,0,1,.14-1.31C286.18,96,286.48,94.19,289.42,94.33Z"/><path class="cls-1" d="M305.56,107.24a12.61,12.61,0,0,1-1.31.13l-.59-1.18v0a.41.41,0,0,0-.07-.11l-3.37-6.82a.25.25,0,0,0,0-.07l-.28-.56a.3.3,0,0,0-.4-.14.31.31,0,0,0-.14.41l.12.22a6,6,0,0,1-1,0l.11-.28a.3.3,0,1,0-.56-.22l-1.49,3.71c-1.23,3.29.93,4.38.93,4.38a11.74,11.74,0,0,0,5.84,1.32l.78,0h.05a14.38,14.38,0,0,0,1.55-.14.3.3,0,0,0,.25-.34A.3.3,0,0,0,305.56,107.24Zm-8.5-4.71,1.15-2.86c.22,0,.45,0,.67,0a8.48,8.48,0,0,0,.88-.06l3.17,6.41a13.23,13.23,0,0,1-4,.62,8.2,8.2,0,0,1-1.2-.52S296,105.31,297.06,102.53Zm3.66,4.64a14.09,14.09,0,0,0,2.48-.55l.39.78A14.31,14.31,0,0,1,300.72,107.17Z"/><path class="cls-1" d="M314.92,91.27a.3.3,0,0,0-.24-.35.3.3,0,0,0-.35.25c-.08.45-.18.88-.29,1.29l-1.21.18a.28.28,0,0,0-.13,0h0a.29.29,0,0,0-.18.07l-7.24,1.06h0a.34.34,0,0,0-.2,0l-.7.11a.3.3,0,0,0-.26.34.31.31,0,0,0,.3.26h.05l.37,0c0,.11,0,.22-.08.33a5.1,5.1,0,0,1-.28.74l-.3-.25a.3.3,0,0,0-.38.46l3.07,2.56a4.32,4.32,0,0,0,2.69,1.11,2.55,2.55,0,0,0,1.76-.64,12.25,12.25,0,0,0,3.28-5.91s0,0,0,0A14.68,14.68,0,0,0,314.92,91.27Zm-1.05,1.82a14,14,0,0,1-1.11,2.66,14.27,14.27,0,0,0,.25-2.53Zm-3,5.2s-1.34,1.36-3.66-.49l-2.29-1.91a7.22,7.22,0,0,0,.38-1,5.63,5.63,0,0,0,.14-.59l6.95-1a13.55,13.55,0,0,1-.64,4A6.53,6.53,0,0,1,310.88,98.29Z"/><path class="cls-1" d="M293,92.31h.07a.3.3,0,0,0,.29-.24.29.29,0,0,0-.23-.35l-.22,0a6.55,6.55,0,0,1,.27-.89l.22.09a.27.27,0,0,0,.12,0,.31.31,0,0,0,.28-.18.3.3,0,0,0-.15-.4L283.79,86a.29.29,0,0,0-.39.15.3.3,0,0,0,.15.4l2.36,1a14.31,14.31,0,0,0-.78,2.4l-2.52-.55a.3.3,0,0,0-.36.23.31.31,0,0,0,.23.36l2.72.59.09,0h.09Zm-6.56-4.49,6.19,2.73a6.82,6.82,0,0,0-.31,1l-6.63-1.44A13.05,13.05,0,0,1,286.47,87.82Z"/><path class="cls-1" d="M303.6,97.46l0-.06s0,0,0,0l-.31-.35a.3.3,0,0,0-.43,0,.31.31,0,0,0,0,.43l.15.17a8.12,8.12,0,0,1-.75.56l-.12-.21a.31.31,0,0,0-.41-.11.3.3,0,0,0-.11.41l.27.46s0,0,0,0,0,0,0,0l3.76,6.44s0,.06,0,.08l0,0,1.31,2.26a.32.32,0,0,0,.26.15.3.3,0,0,0,.16,0,.29.29,0,0,0,.1-.41l-1.2-2.06a14.57,14.57,0,0,0,2.05-1.53l1.61,1.81a.33.33,0,0,0,.23.1.32.32,0,0,0,.2-.08.31.31,0,0,0,0-.43Zm2.38,7.22-3.51-6a7.17,7.17,0,0,0,.84-.64l4.62,5.19A14.57,14.57,0,0,1,306,104.68Z"/><path class="cls-1" d="M299.88,89.13a1,1,0,1,0-2,0,1,1,0,0,0,2,0Zm-1.39,0a.4.4,0,1,1,.39.39A.4.4,0,0,1,298.49,89.13Z"/><path class="cls-1" d="M296.13,92.12a1,1,0,0,0-.06-.76.94.94,0,0,0-.58-.49,1,1,0,1,0-.61,1.89,1.06,1.06,0,0,0,.31,0A1,1,0,0,0,296.13,92.12Zm-.57-.19a.41.41,0,0,1-.5.26.41.41,0,0,1-.25-.5.39.39,0,0,1,.38-.27l.12,0a.35.35,0,0,1,.22.19A.4.4,0,0,1,295.56,91.93Z"/><path class="cls-1" d="M295.79,95.57a1,1,0,0,0-.18.74,1,1,0,0,0,.4.65,1,1,0,0,0,.59.19,1,1,0,0,0,.58-1.8A1,1,0,0,0,295.79,95.57Zm.49.36a.4.4,0,0,1,.55-.09.39.39,0,0,1-.46.64.43.43,0,0,1-.16-.26A.38.38,0,0,1,296.28,95.93Z"/><path class="cls-1" d="M300.36,96.74a1,1,0,0,0,.81.41,1,1,0,0,0,1-.84,1,1,0,0,0-.18-.74,1,1,0,0,0-1.39-.22A1,1,0,0,0,300.36,96.74Zm.58-.9a.37.37,0,0,1,.23-.07.39.39,0,0,1,.39.45.48.48,0,0,1-.16.26.41.41,0,0,1-.55-.09A.39.39,0,0,1,300.94,95.84Z"/><path class="cls-1" d="M302.27,90.87a1,1,0,0,0-.58.49,1,1,0,0,0,.89,1.45,1.12,1.12,0,0,0,.31,0,1,1,0,1,0-.62-1.89Zm.43,1.32a.39.39,0,0,1-.49-.26.38.38,0,0,1,.25-.49l.12,0a.39.39,0,0,1,.37.27A.39.39,0,0,1,302.7,92.19Z"/><path class="cls-1" d="M298.88,74.31a18.86,18.86,0,1,0,18.86,18.86A18.88,18.88,0,0,0,298.88,74.31Zm0,37.42a18.56,18.56,0,1,1,18.56-18.56A18.58,18.58,0,0,1,298.88,111.73Z"/></g></g></svg>