<svg xmlns="http://www.w3.org/2000/svg" viewBox="0 0 341.16 164.01"><defs><style>.cls-1{fill:#231f20;}</style></defs><title>topView</title><g id="Layer_2" data-name="Layer 2"><g id="Layer_1-2" data-name="Layer 1"><path class="cls-1" d="M340.17,63a68.89,68.89,0,0,0-4-19.93,18.37,18.37,0,0,0-2.45-5.5c-2.43-5.39-8.28-10.34-8.37-10.41-.75-.5-.56-1.8-.48-2.19a.51.51,0,0,0-.08-.4.53.53,0,0,0-.35-.22c-2.39-.34-21.91-3.24-22.14-3.27a2,2,0,0,0-.54.05v0c-9.56-1.2-21.63-2.54-34.13-2.92l0-.1-.18.09q-3.93-.12-7.89-.1a27.21,27.21,0,0,1-5.18-.4,5.38,5.38,0,0,0-1.91-1.05,9,9,0,0,0-2.6-.26l-.91,0h-.14c-1.16-.05-2.31-.1-3.46-.13l-4.31-.1c-2.85-.14-3.88,1.09-3.93,1.14v0h0l-.38.59c-17.83-1.45-36.08-1.38-53.73-1.32h-2.2a4.91,4.91,0,0,0-3.55-1.08c-1.41-.12-9.45,0-9.79,0h-.14a4.93,4.93,0,0,0-3.63,1.16c-9.07,0-18.3.27-27.22.54q-6.24.2-12.48.35c-.21,0-.85,0-1.65,0-2.09,0-3.72-.08-5-.08l.18,0,.15,0,.07-.1c.52-.66,2.85-14.36,2.68-15.76-.09-.69-.19-1.48-1-1.48a6.6,6.6,0,0,0-1.4.27,10.34,10.34,0,0,0-4.29,2.3c-3.3,3-4.43,8.52-5.33,13-.16.77-.31,1.52-.47,2.22H90.65l-3.12-.1c-8.6-.28-17.5-.57-26.24,0a140,140,0,0,0-27.78,5c-.4.11-1,.24-1.7.39-3.89.84-10.33,2.24-10.69,5.41a6.74,6.74,0,0,0-1.79,1.65,1.92,1.92,0,0,1-.17.19,22.31,22.31,0,0,0-1.58,1.94c-2.44,1.61-6.17,6.7-6.33,6.92-3.6,5.19-7.43,16.34-7.47,16.45a51,51,0,0,0-2.23,9.91l-.33,2.27A73,73,0,0,0,0,82,72.89,72.89,0,0,0,1.22,96.17l.33,2.27a51,51,0,0,0,2.23,9.91c0,.11,3.87,11.27,7.47,16.46.16.22,3.89,5.31,6.33,6.92a22.31,22.31,0,0,0,1.58,1.94l.17.18a6.85,6.85,0,0,0,1.79,1.66c.37,3.17,6.81,4.56,10.69,5.4.7.15,1.3.28,1.7.39a140.13,140.13,0,0,0,27.78,5c3.69.24,7.41.33,11.12.33,5.08,0,10.15-.17,15.12-.33l3.11-.1h17.23c.16.71.31,1.45.47,2.23.9,4.45,2,10,5.33,13a10.21,10.21,0,0,0,4.29,2.29,6.17,6.17,0,0,0,1.4.28h0c.85,0,1-.79,1-1.48.17-1.4-2.16-15.1-2.68-15.77l-.1-.11-.12,0-.18,0c1.28,0,2.92,0,5-.07.81,0,1.44,0,1.65,0,4.16.09,8.31.22,12.46.34,8.93.27,18.16.55,27.24.55a5.09,5.09,0,0,0,3.77,1.16c.23,0,3.87.06,6.7.06,1.41,0,2.62,0,3.09-.06a4.81,4.81,0,0,0,3.55-1.08H183c3.68,0,7.37,0,11.09,0,14.14,0,28.53-.2,42.66-1.35l.38.6h0s0,0,0,0,1,1.16,3.48,1.16H241l4.32-.11c1.14,0,2.27-.08,3.41-.13h1.1a9.34,9.34,0,0,0,2.6-.26,5.54,5.54,0,0,0,1.91-1,27,27,0,0,1,5.18-.41c2.64,0,5.28,0,7.9-.09l.17.08a.94.94,0,0,0,0-.09c12.51-.38,24.57-1.72,34.13-2.92v-.05a1.63,1.63,0,0,0,.45.06h.12l22.11-3.27a.5.5,0,0,0,.43-.61c-.08-.39-.27-1.7.51-2.22.06-.05,5.9-5,8.33-10.37a18.17,18.17,0,0,0,2.45-5.49,68.94,68.94,0,0,0,4-19.94c0-.14,1-13.28,1-19S340.18,63.1,340.17,63ZM302.26,21.66l22,3.26c-.12.66-.23,2.06.73,2.7a39.25,39.25,0,0,1,7.05,8.07,4.83,4.83,0,0,0-2.28-1.13,25,25,0,0,0-14.07-9c-.12,0-11.75-2.43-14.81-3A1.52,1.52,0,0,1,302.26,21.66Zm-34.49-2.91c12.11.38,23.76,1.65,33.15,2.82a2.86,2.86,0,0,0-.61.75.54.54,0,0,0,0,.48.52.52,0,0,0,.38.29c2.87.56,14.8,3,14.92,3.05a24.25,24.25,0,0,1,13.33,8.31l-19.71-2.69,0,0h0c-7.33-4.73-17.8-5.2-27-5.61-2.23-.1-4.34-.19-6.34-.34-2.76-.21-5.53-.4-8.3-.59A41.67,41.67,0,0,0,267.77,18.75ZM212.28,126l-66.62,1.23c-1-6.36-4.58-31.28-4.73-45.25.15-14,3.77-38.9,4.73-45.26L212.28,38c.14,0,4.18,0,10.16,0,14,0,38.45-.17,48.38-1.24.45,6.25,2.08,29.92,2.23,45.23-.15,15.31-1.78,39-2.23,45.23C256.62,125.7,212.73,126,212.28,126Zm58.5,1.8c0,.28,0,.5,0,.66-32.77-2.67-119.53-.15-124.88,0,0-.15,0-.37-.1-.64l66.54-1.23C212.73,126.63,256.64,126.31,270.78,127.83ZM64.61,135.54l-4.08-.14c-13.15-.42-28-.9-38.85-8.18a29.34,29.34,0,0,1-9.88-11.54v0h0a55.31,55.31,0,0,1-5-17.51,94,94,0,0,0,39.6,23.69l.09-.29A93.47,93.47,0,0,1,6.76,97.64,123.37,123.37,0,0,1,5.9,82a123.48,123.48,0,0,1,.86-15.64A93.57,93.57,0,0,1,46.52,42.45l-.09-.29A94.09,94.09,0,0,0,6.83,65.85a55.24,55.24,0,0,1,5-17.5h0v0a29.27,29.27,0,0,1,9.88-11.54C32.49,29.51,47.38,29,60.53,28.6l4.08-.14-.13.05,1.82-.11c-3,7.1-4.31,15.19-5.56,23-.13.79-.26,1.58-.38,2.36A187.13,187.13,0,0,0,57.92,82h0a187,187,0,0,0,2.44,28.21c.12.78.25,1.57.38,2.37,1.25,7.83,2.54,15.92,5.56,23l-1.82-.11Zm-3.28-23c-.12-.79-.25-1.58-.38-2.36A188.55,188.55,0,0,1,58.52,82,188.42,188.42,0,0,1,61,53.88c.13-.78.26-1.57.38-2.37,1.26-7.89,2.57-16,5.64-23.14,2.36,0,7.15,1.12,8.87,1.55a8.28,8.28,0,0,0-2.24,2.47c-1.65,2.76-2,6.1-2.39,9-.29,2.52-.6,5-.91,7.56C69,59.79,67.63,71,67.19,82h0c.44,11,1.8,22.21,3.11,33,.31,2.51.62,5,.91,7.55.35,3,.74,6.29,2.39,9.05a8.38,8.38,0,0,0,2.23,2.47A49.76,49.76,0,0,1,67,135.64C63.9,128.54,62.59,120.39,61.33,112.49Zm47.31-82.34a165.26,165.26,0,0,0-21-2.11l-1.13,0c-3.39-.1-7.1-.21-10,1.47a68.72,68.72,0,0,0-7.88-1.59c4.19-.92,15.35-2.57,33.72.33l42.89,7.23c0,.16-.06.38-.1.65C131.57,33.81,120.14,31.92,108.64,30.15Zm36.42,6.54c-1,6.42-4.59,31.32-4.73,45.32.14,14,3.76,38.88,4.73,45.3-13.56,2.29-25,4.18-36.51,5.95a166.31,166.31,0,0,1-21,2.11l-1.13,0c-4.78.15-9.73.3-12.35-4.09-1.59-2.65-2-5.92-2.31-8.81q-.45-3.78-.91-7.56C69.59,104.16,68.23,93,67.79,82c.44-11,1.8-22.16,3.11-32.94q.46-3.78.91-7.56c.34-2.88.72-6.15,2.31-8.8,2.62-4.39,7.57-4.24,12.35-4.09l1.13,0a164.28,164.28,0,0,1,21,2.11C120.05,32.51,131.48,34.4,145.06,36.69ZM76.52,134.54a14.63,14.63,0,0,0,7.42,1.51c.86,0,1.71,0,2.55-.05l1.13,0a165.35,165.35,0,0,0,21-2.12c11.53-1.77,23-3.65,36.51-5.94,0,.28.08.5.1.66l-42.89,7.23c-18.37,2.89-29.53,1.25-33.72.33A71.55,71.55,0,0,0,76.52,134.54Zm69.23-98.39c.05-.28.08-.5.1-.65,3.57.11,42.32,1.24,77.75,1.24,18.41,0,35.93-.31,47.13-1.22,0,.16,0,.38,0,.65-14.14,1.53-58,1.21-58.49,1.2ZM273.65,82c-.16-16.82-2.11-43.69-2.32-46.58l7.73-1.8a.63.63,0,0,0,.33-.2v.12L309,32.35A36.71,36.71,0,0,1,320.9,50.54c0,.07,3.28,7.26,3.44,22.55V90.91c-.16,15.3-3.41,22.48-3.46,22.6A36.51,36.51,0,0,1,309,131.65l-29.59-1.18v.11a.69.69,0,0,0-.33-.19l-7.73-1.82C271.54,125.66,273.49,98.81,273.65,82Zm2.1-55.61c2,.15,4.12.24,6.35.34,8.85.4,18.82.85,26,5.06l-28.48,1.13v0a.68.68,0,0,0-.65-.63l-11.51-.67h-.08c-1.78.11-3.58.2-5.34.28,1.33-1.29,4.49-4.45,5.33-6.07C270.14,26,273,26.18,275.75,26.39ZM141.46,22.92c.24,0,24.84.31,26.75.31.1,0,9.73-.18,12.93,0,1.72,1,4.38,3.24,6.08,8l-23.66-.61c-10.92-.37-20.14-.74-20.19-.74L117.53,26l-1.36-3.56Zm-25.52-1.1h-.21a3.93,3.93,0,0,1-1.09-.15q11.88.16,23.78.28c13.57.15,27.29.31,41.07.54l.27.08c-4-.09-11.47.05-11.56.05-1.9,0-26.49-.3-26.73-.31Zm149.66,4-22.37-1.34,0-.08q11.28.54,22.52,1.28Zm.79-.1.29,0a23.17,23.17,0,0,1-2.74,3.3A31.24,31.24,0,0,0,266.39,25.73Zm-18.91,6h-.07v0h0L242,24.35l.4,0Zm-.91-.13-3.47.05c-1.7,0-3.41.06-5,.06-4.66,0-9.24,0-13.1,0q-7.31,0-14.6-.13l-12.76-.15a20.88,20.88,0,0,0-2.78-7.84c2.85.07,16.09.37,20.09.48.16,0,15.61.56,18.24.62l8.59.43Zm-13.32-7.54c-2.64-.06-18.09-.61-18.25-.62l-20.48-.49-.11-.16c15.58.33,31.23.81,46.84,1.54l.1.13Zm-36.17,7.48-4-.05,0,0a29.1,29.1,0,0,0-4.94-8.81l5.49.11A21.52,21.52,0,0,1,197.08,31.53Zm-4.58-.06-4.58-.07c-1.87-5.54-4.93-7.91-6.78-8.89l6.23.12A29.08,29.08,0,0,1,192.5,31.47Zm-49.19-1c.09,0,9.31.37,20.23.74l24.1.62V31.7l9.5.14s0,0,0,0l0,0a.1.1,0,0,0,.05,0l0,0h.11l13,.16q7.29.08,14.59.13c3,0,6.35,0,9.87,0h3.24l5-.06,4.06-.06a.31.31,0,0,0,.26-.16l.25,0h0l0,0,.07.06,0,0a.31.31,0,0,0,.13,0h0c.09,0,8.65,0,13.33-.4l-.16.16-2.27.11c-4,.19-8.07.39-12.11.39H202.36c-11.45-.16-54.83-1.31-55.26-1.33-6.23-.28-17.91-2.14-29.22-4.18l-.1-.26Zm117.6.68c-4.35.31-11.67.37-12.82.38l-4.42-6.43,21.53,1.29A22.52,22.52,0,0,1,260.91,31.17ZM237.59,17.59c.07-.09,1-1,3.43-.92l4.31.1c1.15,0,2.3.09,3.45.14h.14c.3,0,.62,0,.94,0a8.77,8.77,0,0,1,2.43.23,4.59,4.59,0,0,1,1.48.78,4.13,4.13,0,0,1-2.29.95l-.64,0-.61,0a1,1,0,0,1-.72-.1,1.46,1.46,0,0,1-.4-.49c-.24-.36-.52-.81-1.1-.83l-2.2-.12c-.9-.05-1.81-.1-2.55-.12a1.19,1.19,0,0,0-1.09.61l-.1.19a3.81,3.81,0,0,0-.29.52c-1.33,0-2.68-.19-4-.34l-.4-.05c-.13,0-.2,0-.18-.07Zm11.35,1.59a35.32,35.32,0,0,1-6.6-.32l.24-.45.12-.19a.61.61,0,0,1,.54-.31c.74,0,1.64.07,2.54.13l2.2.11c.25,0,.4.22.62.56A3.72,3.72,0,0,0,248.94,19.18ZM175.1,16c1,0,1.79,0,2.12.05h.08a4.22,4.22,0,0,1,2.94.83,4,4,0,0,1-2.27,1l-.63.07-.61.06A1.06,1.06,0,0,1,176,18a1.44,1.44,0,0,1-.42-.48,2.27,2.27,0,0,0-.6-.64A2,2,0,0,1,175.1,16Zm.35,2.28a34.2,34.2,0,0,1-6.61-.09c.07-.15.15-.3.23-.45l.1-.2a.63.63,0,0,1,.54-.33c.73,0,1.63,0,2.52,0l2.22,0c.26,0,.41.2.64.54A3.74,3.74,0,0,0,175.45,18.28Zm-11.4-1.2c.08-.1,1-1.07,3.39-1,.07,0,4.42-.07,7.34-.06a3.05,3.05,0,0,0-.1.72l-.22,0-2.21,0c-.9,0-1.8,0-2.54,0a1.21,1.21,0,0,0-1.07.65l-.1.19a5.28,5.28,0,0,0-.27.53c-1.33,0-2.68-.09-4-.2l-.41,0c-.13,0-.2,0-.19,0Zm-41.75,1c.85,0,1.46,0,1.69,0q6.24-.15,12.48-.35c8.78-.26,17.86-.53,26.79-.54l-.09.16a.58.58,0,0,0,0,.59.83.83,0,0,0,.7.39l.41,0c1.34.11,2.73.22,4.11.2a.52.52,0,0,0,.3-.11,40.12,40.12,0,0,0,4.15.23,26.2,26.2,0,0,0,3-.16,1.55,1.55,0,0,0,.62.12,2.05,2.05,0,0,0,.37,0l.58-.06.67-.07a4.43,4.43,0,0,0,2.76-1.38H183c17.63-.07,35.85-.13,53.65,1.31h0a.84.84,0,0,0,.69.4l.4.05c1.34.15,2.73.32,4.11.34a.57.57,0,0,0,.3-.1,36.39,36.39,0,0,0,5.21.4c.64,0,1.31,0,2-.09a1.55,1.55,0,0,0,.68.15l.3,0,.59,0c.22,0,.44,0,.67-.05a4.36,4.36,0,0,0,2.75-1.23,33.75,33.75,0,0,0,5.25.4c2.55,0,5.1,0,7.63.09a41.38,41.38,0,0,1-.29,6.42l-.6,0h0q-11.78-.78-23.61-1.34h-.08c-16.22-.77-32.48-1.27-48.67-1.62h-.09L187.48,22h0c-16.47-.32-32.86-.5-49.05-.68q-12.42-.13-24.83-.29l-.11-.11a3.4,3.4,0,0,1-.16-2.66l.46-.16C115.38,17.9,120.29,18,122.3,18.07Zm-13.37-2.41c.89-4.37,2-9.8,5.14-12.64a9.67,9.67,0,0,1,4-2.16A6.75,6.75,0,0,1,119.36.6c.21,0,.32,0,.44,1,.16,1.35-2.06,13.9-2.52,15.24a23.94,23.94,0,0,0-3.75.79,1.61,1.61,0,0,0-.57.19c-.32,0-1.35.07-2.57.07-.7,0-1.34,0-1.9-.05Zm-.52,2.73c.59,0,1.26.05,2,.05,1,0,1.8,0,2.28-.05a3.74,3.74,0,0,0,.3,2.87,3,3,0,0,0,2.55,1.16l1.67,4.35c-5.51-1-10.9-2-15.5-2.93a16.35,16.35,0,0,1-.78-2.76l5.25-.19A2.54,2.54,0,0,0,108.41,18.39ZM101,23.71c-4.47-.88-8.13-1.63-10.33-2.08l9.63-.52A15.44,15.44,0,0,0,101,23.71Zm-69.06,0c.7-.15,1.31-.28,1.73-.4a139.48,139.48,0,0,1,27.65-5c8.72-.57,17.6-.28,26.19,0l3.13.1h17.17a1.93,1.93,0,0,1-1.69,1.92l-5.48.2h0l-11.87.64a.37.37,0,0,0-.34.34.35.35,0,0,0,.29.37c4.52.95,44.6,9.22,58.36,9.85.43,0,43.82,1.16,55.28,1.32h44.36c4.05,0,8.16-.2,12.14-.39l2.77-.14c1.89-.08,3.84-.18,5.77-.3l11.51.67a.09.09,0,0,1,.08.09c0,.08-.05.09-.07.09L271,34.89c-33.28,2.77-123.9,0-125.35,0l-43.18-7.28c-23.13-3.64-34.94-.12-35.83.16-2,.1-4,.16-6.11.23-3.95.13-8,.26-12.15.58-.71-1.41-3.58-1.86-5-2.08l-.42-.07a29.47,29.47,0,0,0-9-.16,34.54,34.54,0,0,0-6.67,1.85l-2.15.74-3.37-.39C22.2,25.79,28.74,24.37,31.94,23.68ZM19.6,30.75l.18-.2c1.13-1.27,1.49-1.49,1.59-1.51l3.72.43h.07l.06,0,2.23-.77A32.89,32.89,0,0,1,34,26.86a29.25,29.25,0,0,1,8.8.16l.43.07c1.17.18,3.67.58,4.45,1.54-9.43.78-18.83,2.6-26.34,7.66a29.36,29.36,0,0,0-9,9.75l.58-2.39C14.44,39.34,16.16,34.46,19.6,30.75Zm-7.85,93.71c-3.56-5.12-7.36-16.19-7.4-16.31a50.87,50.87,0,0,1-2.2-9.79c-.11-.76-.22-1.52-.34-2.27A72.9,72.9,0,0,1,.65,82l-.3,0h.3A72.9,72.9,0,0,1,1.81,67.92c.12-.76.23-1.52.34-2.27a51.13,51.13,0,0,1,2.2-9.8c0-.11,3.84-11.19,7.39-16.3A52.58,52.58,0,0,1,16.43,34a51,51,0,0,0-4.09,9.46l-1.12,4.65A56.33,56.33,0,0,0,6.2,66a121.08,121.08,0,0,0-.9,16,121,121,0,0,0,.9,16,56.18,56.18,0,0,0,5,17.87l1.13,4.69A51.24,51.24,0,0,0,16.43,130,51,51,0,0,1,11.75,124.46Zm8,9-.18-.19c-3.44-3.71-5.16-8.59-6.67-12.87L12.35,118a29.33,29.33,0,0,0,9,9.75c7.51,5.05,16.91,6.87,26.34,7.65-.78,1-3.28,1.36-4.45,1.54l-.43.07a28.93,28.93,0,0,1-8.8.16,33.46,33.46,0,0,1-6.54-1.82l-2.24-.77-.06,0h-.07l-3.7.43C21.25,134.94,20.85,134.66,19.78,133.45Zm70.85,12.19-3.12.1c-8.59.28-17.47.57-26.19,0a139.7,139.7,0,0,1-27.65-5c-.42-.11-1-.24-1.73-.4-3.2-.69-9.74-2.1-10.21-4.79l3.37-.39,2.16.75a34.24,34.24,0,0,0,6.66,1.85,27.76,27.76,0,0,0,3.9.27,31,31,0,0,0,5.08-.43l.42-.07c1.47-.23,4.33-.68,5-2.08,4.1.31,8.2.45,12.15.58,2.12.06,4.13.13,6.11.22.54.17,5.93,1.8,16.31,1.8a125.38,125.38,0,0,0,19.53-1.64l43.16-7.28c1.4,0,92.07-2.77,125.37,0l7.93,1.86s.08,0,.07.1-.07.08-.08.08l-11.52.67c-1.92-.12-3.88-.21-5.77-.3l-2.76-.13c-4-.2-8.09-.4-12.14-.4H202.35c-11.45.17-54.84,1.32-55.28,1.33-13.73.62-53.83,8.9-58.35,9.84a.36.36,0,0,0,0,.71l11.74.64h.06l5.52.21a1.94,1.94,0,0,1,1.72,1.92Zm77.57-4.86c-1.9,0-26.5.31-26.75.31l-25.28.49,1.36-3.56,25.8-3.9c.09,0,9.31-.38,20.23-.74l23.66-.61c-1.7,4.77-4.36,7-6.08,8C177.94,141,168.31,140.78,168.2,140.78Zm11.56.65-.27.09c-13.79.23-27.5.38-41.08.53l-23.77.28a4,4,0,0,1,1.09-.14h.21l25.52-.49c.25,0,24.84-.31,26.74-.31C168.29,141.38,175.76,141.52,179.76,141.43Zm-62-4.06.1-.26c11.31-2,23-3.91,29.21-4.19.44,0,43.82-1.16,55.27-1.32h44.36c4,0,8.14.2,12.11.39l2.27.11.16.15c-4.68-.35-13.24-.4-13.33-.4h-.06a.26.26,0,0,0-.19.13h-.25a.32.32,0,0,0-.26-.17l-4.07-.05c-1.69,0-3.41-.06-5-.06-4.62,0-9.22,0-13.11,0q-7.29,0-14.59.13-6.51.06-13,.16h0l-.07,0-.05,0,0,0-.05.06v0l-9.5.14v-.16l-24.1.62c-10.92.37-20.14.74-20.26.75Zm70.14-4.77,4.58-.06a29,29,0,0,1-5.14,8.84l-6.22.11C183,140.52,186.05,138.14,187.92,132.6Zm5.21-.06h0l4-.06a21.59,21.59,0,0,1-3.4,8.78l-5.49.11A29.16,29.16,0,0,0,193.13,132.54Zm1.39,8.52c1.67,0,16.24-.37,20.49-.49.15,0,15.6-.56,18.24-.62l8.1-.4-.1.14c-15.61.73-31.26,1.2-46.84,1.54Zm38.71-1.71c-2.64.06-18.09.62-18.24.62-4,.11-17.25.42-20.1.48a20.76,20.76,0,0,0,2.78-7.83l12.76-.16q7.31-.08,14.6-.13c3.89,0,8.48-.05,13.1,0l5,.06,3.48,0-4.76,6.52Zm14.18-7.06h.07l-5.06,7.35-.4,0Zm-4.18,7.22,22.37-1.34.1.15q-11.24.74-22.52,1.27ZM263.94,135a23.3,23.3,0,0,1,2.74,3.3h-.29A33.06,33.06,0,0,0,263.94,135Zm1.26,2.63-21.53,1.29,4.42-6.42c1.15,0,8.47.06,12.82.37A22.77,22.77,0,0,1,265.2,137.59ZM101,140.3a14.44,14.44,0,0,0-.7,2.59l-9.63-.52C92.87,141.92,96.53,141.18,101,140.3Zm5.14,2.82-5.23-.2a16,16,0,0,1,.78-2.76c4.6-.9,10-1.93,15.5-2.93l-1.67,4.36a3,3,0,0,0-2.55,1.15,3.77,3.77,0,0,0-.3,2.88c-.48,0-1.33-.05-2.28-.05-.72,0-1.39,0-2,.05A2.53,2.53,0,0,0,106.14,143.12Zm13.66,19.33c-.12,1-.23,1-.44,1h0a6.53,6.53,0,0,1-1.25-.25,9.78,9.78,0,0,1-4-2.16c-3.15-2.84-4.25-8.28-5.14-12.64-.15-.74-.3-1.45-.44-2.13.56,0,1.2-.05,1.9-.05,1.22,0,2.27.05,2.57.07a1.73,1.73,0,0,0,.56.18,22.86,22.86,0,0,0,3.76.79C117.75,148.57,120,161.1,119.8,162.45ZM167.43,148c-2.39,0-3.31-1-3.39-1a6.7,6.7,0,0,0-.39-.59.38.38,0,0,1,.22-.07l.4,0c1.31-.11,2.67-.22,4-.2.08.17.17.35.27.53l.1.19a1.22,1.22,0,0,0,1.07.65c.74,0,1.64,0,2.55,0s1.53,0,2.2,0a.78.78,0,0,0,.22,0,3,3,0,0,0,.1.72C171.86,148,167.5,148,167.43,148Zm1.41-2.14a34.2,34.2,0,0,1,6.61-.09,2.63,2.63,0,0,0-.36.45c-.23.33-.38.53-.64.54-.67,0-1.44,0-2.21,0s-1.8,0-2.53,0a.62.62,0,0,1-.54-.34l-.1-.19C169,146.12,168.91,146,168.84,145.82ZM177.3,148h-.08c-.33,0-1.12,0-2.12,0a2,2,0,0,1-.11-.84,2.18,2.18,0,0,0,.6-.65,1.3,1.3,0,0,1,.42-.47,1.11,1.11,0,0,1,.72-.08c.2,0,.41.05.61.06l.63.07a4.1,4.1,0,0,1,2.27,1A4.12,4.12,0,0,1,177.3,148Zm75-1.12a8.76,8.76,0,0,1-2.43.24h-1.12c-1.14.05-2.27.1-3.41.13-1.44,0-2.87.08-4.32.1-2.45.13-3.38-.86-3.43-.92l-.41-.58a.66.66,0,0,1,.22-.07l.4,0c1.31-.16,2.66-.31,4-.34.08.17.18.34.28.52l.11.18a1.21,1.21,0,0,0,1.09.62c.74,0,1.64-.08,2.55-.13.76,0,1.53-.09,2.2-.11a1.45,1.45,0,0,0,1.1-.84,1.57,1.57,0,0,1,.4-.49,1.16,1.16,0,0,1,.72-.1l.61,0,.64.05a4.06,4.06,0,0,1,2.29.95A4.76,4.76,0,0,1,252.29,146.84Zm-9.95-1.69a33.64,33.64,0,0,1,6.6-.32,2.69,2.69,0,0,0-.34.47c-.22.34-.37.54-.62.55l-2.21.12-2.53.13a.64.64,0,0,1-.54-.32l-.12-.19C242.5,145.44,242.41,145.3,242.34,145.15Zm24.84.12c-2.53.07-5.08.11-7.63.09a34.81,34.81,0,0,0-5.25.4,4.43,4.43,0,0,0-2.75-1.24l-.67-.05-.59,0a1.92,1.92,0,0,0-1,.13,33.75,33.75,0,0,0-7.19.32.5.5,0,0,0-.3-.11c-1.38,0-2.77.19-4.11.35l-.4,0a.85.85,0,0,0-.69.41h0c-17.8,1.44-36,1.37-53.66,1.31h-2.15a4.36,4.36,0,0,0-2.76-1.37c-.22,0-.44-.06-.67-.08l-.58-.06a1.88,1.88,0,0,0-1,.1,33.84,33.84,0,0,0-7.2.07.46.46,0,0,0-.3-.11,40.17,40.17,0,0,0-4.12.2l-.4,0a.85.85,0,0,0-.7.38.58.58,0,0,0,0,.59l.09.16c-8.93,0-18-.28-26.81-.54-4.15-.12-8.31-.25-12.46-.35l-1.68,0c-2,0-6.93.17-8.53-.05l-.46-.17a3.38,3.38,0,0,1,.16-2.65c0-.05.08-.07.11-.11l24.83-.3c16.19-.17,32.57-.36,49.05-.67h0l6.33-.13h.05c16.2-.34,32.47-.84,48.7-1.61h.05q11.82-.56,23.61-1.33h0l.64,0A41.38,41.38,0,0,1,267.18,145.27Zm.16-7.06c-.84-1.61-4-4.78-5.33-6.07,1.76.09,3.56.17,5.34.28h.06l11.53-.67a.68.68,0,0,0,.65-.63v0l28.48,1.14c-7.15,4.2-17.12,4.66-26,5.05-2.23.1-4.35.2-6.35.35C273,137.83,270.14,138,267.34,138.21Zm.43,7a41.6,41.6,0,0,0-.28-6.44l8.3-.59c2-.15,4.11-.25,6.34-.35,9.24-.41,19.71-.87,27-5.61h0l19.72-2.69a24.31,24.31,0,0,1-13.34,8.31c-.12,0-12,2.49-14.92,3a.51.51,0,0,0-.36.76,2.92,2.92,0,0,0,.6.76C291.53,143.61,279.88,144.88,267.77,145.25ZM325,136.36c-1,.66-.88,2.07-.76,2.73l-22,3.26a1.6,1.6,0,0,1-1.39-.86c3.06-.6,14.69-3,14.81-3a25,25,0,0,0,14.07-9,5.05,5.05,0,0,0,2.28-1.13A39.31,39.31,0,0,1,325,136.36ZM339.57,101a68.27,68.27,0,0,1-4,19.79c-2.22,7.76-6,8.07-6,8.07l-19.46,2.65a37.12,37.12,0,0,0,11.33-17.79c0-.08,3.34-7.36,3.51-22.8V73.08c-.17-15.44-3.47-22.72-3.49-22.74a37.32,37.32,0,0,0-11.35-17.85l19.49,2.66s3.79.31,6,8.1A68,68,0,0,1,339.57,63c0,.13,1,13.25,1,19S339.58,100.86,339.57,101Z"/></g></g></svg>